HIERARCHY
ROOT Hip
{
  OFFSET 0.000000 0.000000 0.000000
  CHANNELS 6 Xposition Yposition Zposition Zrotation Xrotation Yrotation
  JOINT RHip
  {
    OFFSET 0.000137 0.000020 0.000130
    CHANNELS 3 Zrotation Xrotation Yrotation
    JOINT RKnee
    {
      OFFSET -0.000204 0.000519 -0.000069
      CHANNELS 3 Zrotation Xrotation Yrotation
      JOINT RFoot
      {
        OFFSET 0.000186 0.000770 -0.000164
        CHANNELS 3 Zrotation Xrotation Yrotation
        End Site
        {
          OFFSET 0.000000 0.050000 0.000000
        }
      }
    }
  }
  JOINT LHip
  {
    OFFSET -0.000137 -0.000020 -0.000130
    CHANNELS 3 Zrotation Xrotation Yrotation
    JOINT LKnee
    {
      OFFSET -0.000113 0.000565 0.000093
      CHANNELS 3 Zrotation Xrotation Yrotation
      JOINT LFoot
      {
        OFFSET 0.000045 0.000717 -0.000022
        CHANNELS 3 Zrotation Xrotation Yrotation
        End Site
        {
          OFFSET 0.000000 0.050000 0.000000
        }
      }
    }
  }
  JOINT Spine
  {
    OFFSET 0.000007 -0.000442 -0.000112
    CHANNELS 3 Zrotation Xrotation Yrotation
    JOINT Thorax
    {
      OFFSET 0.000018 -0.000285 -0.000080
      CHANNELS 3 Zrotation Xrotation Yrotation
      JOINT Nose
      {
        OFFSET -0.000144 -0.000346 0.000045
        CHANNELS 3 Zrotation Xrotation Yrotation
        JOINT Head
        {
          OFFSET 0.000300 -0.000111 0.000018
          CHANNELS 3 Zrotation Xrotation Yrotation
          End Site
          {
            OFFSET 0.000000 0.050000 0.000000
          }
        }
      }
      JOINT LShoulder
      {
        OFFSET -0.000081 -0.000025 -0.000087
        CHANNELS 3 Zrotation Xrotation Yrotation
        JOINT LElbow
        {
          OFFSET -0.000286 0.000036 -0.000108
          CHANNELS 3 Zrotation Xrotation Yrotation
          JOINT LWrist
          {
            OFFSET 0.000014 -0.000083 0.000405
            CHANNELS 3 Zrotation Xrotation Yrotation
            End Site
            {
              OFFSET 0.000000 0.050000 0.000000
            }
          }
        }
      }
      JOINT RShoulder
      {
        OFFSET 0.000083 0.000040 0.000121
        CHANNELS 3 Zrotation Xrotation Yrotation
        JOINT RElbow
        {
          OFFSET -0.000092 0.000062 0.000101
          CHANNELS 3 Zrotation Xrotation Yrotation
          JOINT RWrist
          {
            OFFSET -0.000090 -0.000156 0.000035
            CHANNELS 3 Zrotation Xrotation Yrotation
            End Site
            {
              OFFSET 0.000000 0.050000 0.000000
            }
          }
        }
      }
    }
  }
}
MOTION
Frames: 9
Frame Time: 0.033333
0.000000 0.000000 0.000000 0.000000 0.000000 0.000000 -66.375755 18.972474 12.474641 3.162986 26.285947 -0.738728 -2.480020 10.291567 0.223368 100.646695 -20.504561 24.600555 -6.090472 24.220657 1.308008 0.890839 -9.285922 0.072349 -21.520458 -153.796941 -78.466928 -10.871487 -158.137014 -52.457658 0.923853 -168.258582 8.966711 -118.849860 0.634040 1.073148 92.439202 -12.242586 12.770887 26.942690 18.735199 -4.526081 -2.416913 163.833899 16.897182 -44.578757 -9.657388 -3.966506 -10.281249 -70.048928 -7.215398 1.155818 135.323729 -2.812372
0.000000 0.000000 0.000000 0.000000 0.000000 0.000000 -40.999337 50.371301 19.943574 -4.194703 16.723064 0.616812 -1.547292 6.509592 0.087997 53.665863 -71.984147 40.348728 -4.597223 25.002707 1.019814 0.947576 -3.002397 0.024834 -0.819860 -173.389896 -14.125431 -15.093642 -149.520716 -51.866551 -5.928395 -164.594054 -41.896944 -127.635893 2.596518 5.278165 -37.651881 -27.762712 -9.632125 27.676663 2.082676 -0.513085 4.872988 154.174129 -21.028095 2.610694 -33.235935 0.779296 5.388438 -45.181733 2.243350 -18.164933 127.054276 35.594364
0.000000 0.000000 0.000000 0.000000 0.000000 0.000000 3.211439 -105.544615 4.225862 -3.940201 11.775539 0.406489 -0.743940 9.641371 0.062742 -3.394362 74.746051 2.592970 -7.525441 9.585819 0.631893 3.491756 -9.744227 0.297729 -175.899489 -0.918960 -25.253610 -3.666408 -151.117657 -14.169435 -8.596582 -155.902894 -38.797820 -120.683427 -6.622927 -11.604034 -61.636136 40.187577 24.621513 15.284600 38.057187 -5.299148 -8.868813 -161.245559 -50.309456 26.944971 -8.807733 2.114002 2.403376 -65.612716 1.549380 -40.966359 117.789038 63.523897
0.000000 0.000000 0.000000 0.000000 0.000000 0.000000 29.204836 -60.421794 17.251534 -7.451968 10.687176 0.697992 3.613308 12.581960 -0.398468 -34.468131 89.584196 34.233509 2.648142 11.647920 -0.270155 3.671255 2.642575 -0.084706 -0.769077 -172.527452 -11.736053 -7.405070 -154.110569 -31.447592 -0.006005 -158.527605 -0.031669 -123.578449 -17.924957 -32.766790 -72.488184 25.857131 19.104533 -27.051490 32.411193 7.998411 115.315313 -47.941391 70.150257 36.602328 -23.055568 7.718314 6.739569 -59.182663 3.830252 -146.172299 22.813011 67.126356
0.000000 0.000000 0.000000 0.000000 0.000000 0.000000 -90.755580 1.600970 1.622220 -7.547272 10.255446 0.678230 -4.922742 10.215004 0.440261 89.274977 -1.631114 1.610606 -4.845947 6.450332 0.273228 3.875719 -4.605706 0.155918 -20.946658 -154.649685 -78.836268 -15.860019 -151.381178 -57.278146 134.483157 -31.025956 66.981471 -114.752894 -23.236554 -35.614186 -48.261232 -70.576702 -35.181273 6.144880 19.210410 -1.040872 76.542630 80.220381 -67.215134 -57.382144 -32.129027 -17.912023 33.631573 -48.973758 15.674497 164.010373 1.528803 -10.853225
0.000000 0.000000 0.000000 0.000000 0.000000 0.000000 -70.767980 -38.127871 -27.580483 -11.687217 -0.655817 -0.067120 -9.366011 16.048731 1.323258 69.968147 37.865777 -26.995983 -14.307773 7.726229 0.971182 -0.507786 -4.928576 -0.021853 2.575775 -170.833738 31.332690 -166.590982 -5.474754 -44.266416 100.996377 -57.934052 67.760754 -117.411549 -0.807807 -1.328873 -69.225768 -14.121573 -9.772389 18.974485 0.218971 -0.036593 61.926584 78.488362 -52.219861 -13.691253 -89.397670 -13.549410 -1.442980 -80.614838 -1.224075 -5.153926 145.644175 16.567241
0.000000 0.000000 0.000000 0.000000 0.000000 0.000000 -91.578756 -14.453810 -14.853218 -8.040280 1.399739 0.098379 -8.303167 13.670839 0.997019 81.616183 14.262638 -12.330866 -7.310432 14.310697 0.918962 -3.648419 -6.424225 -0.204821 0.795866 -173.544493 14.041968 -116.861299 -47.045641 -70.627231 127.949929 -39.994077 73.394540 -111.957434 -1.297601 -1.922133 90.698036 43.026028 -43.504443 68.149783 13.977730 -9.480188 71.774530 62.078088 -47.058389 -60.685917 -37.038424 -22.187251 -12.452373 -84.279240 -11.275262 -9.724600 165.816779 68.726980
0.000000 0.000000 0.000000 0.000000 0.000000 0.000000 -83.967524 -17.391643 -15.673394 -8.506849 4.979137 0.370545 -6.488713 14.362030 0.818392 86.228525 17.408762 -16.314395 -10.024785 14.514573 1.279823 0.296656 -12.780367 0.033224 0.139310 -171.328206 1.837206 -148.126257 -9.073407 -31.057875 159.301572 -6.900190 36.539574 -111.724264 -4.677915 -6.894927 105.052970 8.197915 -10.681202 72.392690 -0.975975 0.714218 17.543633 117.943350 -28.774430 -52.698916 -54.243115 -28.470726 -3.490927 -83.288838 -3.104434 25.823958 139.121944 -63.195781
0.000000 0.000000 0.000000 0.000000 0.000000 0.000000 -87.216205 -21.388626 -20.395688 -5.667550 1.014319 0.050209 -9.461985 6.543174 0.542095 78.667011 20.905375 -17.193696 -1.847355 15.912071 0.258205 2.165215 -17.639393 0.335994 165.592061 -10.216800 70.539202 -154.374439 -9.766247 -41.177295 119.729742 -48.087795 75.088659 -109.471457 -0.618450 -0.874616 65.297555 28.016371 -18.163611 67.383743 18.257109 -12.229641 -23.321735 95.018148 25.392780 -29.688143 -85.043180 -27.320962 -47.072106 -47.479007 -21.687986 145.418520 12.248709 -38.037525
